PathFileType	4	(X/Y/Z)	C:/Users/beibeiliu/ov580/test_trc/capture2\sequence.29_training_dense_right.trc
DataRate	CameraRate	NumFrames	NumMarkers	Units	OrigDataRate	OrigDataStartFrame	OrigNumFrames
120	120	18	19	mm	120	1	340
Frame#	Time	ThumbCMC			ThumbMCP			ThumbIP			ThumbTip			IndexMCP			IndexPIP			IndexTip			MiddleMCP			MiddlePIP			MiddleTip			RingMCP			RingPIP			RingTip			PinkyMCP			PinkyPIP			PinkyTip			BackHand1			BackHand2			BackHand3	
		X0	Y0	Z0	X1	Y1	Z1	X2	Y2	Z2	X3	Y3	Z3	X4	Y4	Z4	X5	Y5	Z5	X6	Y6	Z6	X7	Y7	Z7	X8	Y8	Z8	X9	Y9	Z9	X10	Y10	Z10	X11	Y11	Z11	X12	Y12	Z12	X13	Y13	Z13	X14	Y14	Z14	X15	Y15	Z15	X16	Y16	Z16	X17	Y17	Z17	X18	Y18	Z18	
0	0	110.798	29.5221	28.1249	91.8239	16.7974	5.9766	82.853	12.2473	-19.9362	77.6143	8.8128	-41.2844	122.288	51.2122	-42.896	118.871	49.8387	-70.5536	115.177	53.7305	-90.1805	151.955	56.5223	-46.1064	151.962	56.6487	-71.2308	159.313	61.0755	-98.3729	171.344	52.3266	-40.749	178.443	54.0762	-64.4655	187.727	58.1635	-89.2383	192.152	43.3542	-26.3683	206.222	43.3196	-42.2773	221.807	50.1859	-54.683	164.481	56.4247	8.82538	160.612	57.9113	39.917	131.895	56.3204	22.0033	
1	0.00833333	107.936	30.3456	22.8727	95.0306	17.6236	6.80932	83.8597	13.7084	-21.7244	73.4885	8.71176	-38.865	121.572	51.2928	-43.0398	115.752	51.6522	-69.8104	118.056	55.3153	-94.2633	147.08	56.9687	-45.5229	150.51	58.6188	-75.3711	157.558	63.3063	-100.515	168.202	54.4152	-43.0273	181.081	55.3991	-60.7559	184.991	59.7414	-89.2054	190.408	43.9419	-25.9413	205.996	45.0164	-42.9731	218.94	52.522	-59.3909	163.102	56.5823	8.91867	159.747	57.4114	39.467	130.249	57.9654	18.7954	
2	0.0166667	106.32	29.8297	28.28	95.2541	18.1076	4.49892	81.9577	14.0913	-20.6383	75.7676	10.9361	-40.1744	121.66	52.1557	-43.1208	115.023	51.5711	-65.6741	118.387	56.0558	-90.5892	147.127	58.7418	-50.0126	149.386	59.9029	-74.4454	157.12	64.6695	-101.615	170.53	55.1385	-40.739	176.554	56.2199	-60.9093	185.006	60.4681	-87.3798	190.602	46.5672	-26.5992	204.426	44.989	-40.5341	216.833	53.8109	-54.8643	163.832	57.5253	8.45144	162.64	58.9905	37.6007	131.846	58.7259	20.9698	
3	0.025	105.266	30.3941	25.5456	92.1639	18.3101	7.23909	82.1937	15.4512	-21.7722	72.8622	11.1623	-40.6959	119.217	52.5609	-40.7461	114.451	52.7871	-69.4646	118.653	57.8216	-91.6598	150.356	59.8207	-46.9944	152.719	61.3978	-74.5293	158.388	65.0963	-99.1429	168.59	57.4935	-41.8391	177.82	59.5725	-63.8167	183.075	62.57	-87.677	189.671	47.1863	-25.0099	201.976	46.203	-39.0086	219.413	57.4012	-56.5068	160.651	59.3038	8.69465	160.996	56.4761	40.4562	128.399	57.8215	17.5452	
4	0.0333333	103.535	32.229	24.324	92.4061	20.0449	6.19639	80.7814	17.08	-20.4047	72.6983	13.1693	-41.4593	119.937	55.3767	-44.2005	113.68	55.1968	-65.8465	118.272	59.4853	-90.6172	144.91	60.4721	-43.844	150.007	62.3971	-74.2399	154.196	67.5896	-96.9475	167.007	56.5812	-36.9747	174.518	61.2722	-64.3072	182.724	67.1416	-87.8419	189.702	46.912	-21.8718	204.003	50.0612	-42.0552	219.579	58.2251	-56.5082	160.685	58.6522	12.1617	163.209	58.868	41.0793	132.988	58.5596	22.1691	
5	0.0416667	103.849	31.5869	23.3585	93.7192	20.1501	5.62084	81.9025	16.5239	-16.2525	72.9616	13.9782	-38.1266	116.776	54.1824	-42.2749	117.12	56.1889	-68.2715	111.163	60.8886	-92.5138	147.094	60.5873	-43.5597	151.634	63.091	-69.934	153.148	67.7361	-94.9959	166.122	57.3458	-40.3442	176.63	60.7977	-60.0481	179.799	65.3146	-83.8866	192.003	47.3586	-24.1471	200.674	48.4406	-39.3619	221.157	59.8723	-54.8067	164.921	57.7691	10.0181	160.519	56.8794	38.1164	132.652	58.4065	18.4826	
6	0.05	105.182	30.188	24.4106	88.8506	19.9216	7.06076	75.8332	17.0967	-18.7486	68.0223	13.1932	-37.4464	117.242	53.5819	-42.505	111.166	55.004	-68.0415	116.003	60.6913	-91.4002	143.567	60.0831	-44.8698	148.567	61.621	-70.2271	153.498	67.3722	-96.6367	169.333	56.753	-39.4308	177.018	59.2545	-59.9378	182.678	64.7757	-82.6559	187.693	45.3167	-22.9123	204.702	46.1492	-39.4285	220.729	57.371	-54.664	159.905	57.6085	12.5861	156.905	55.4074	40.207	129.316	56.652	18.9662	
7	0.0583333	102.579	27.6104	28.6469	88.2545	18.2815	6.81203	75.9243	15.5707	-17.4442	66.971	13.1499	-39.2228	114.494	51.9204	-42.6285	113.983	52.9875	-69.9778	113.248	59.7839	-93.3154	145.456	57.242	-46.521	148.843	59.197	-71.7178	157.057	66.5698	-99.7377	169.558	53.4972	-40.009	177.963	56.7657	-60.8518	179.81	62.1995	-82.9562	186.808	42.5558	-21.568	199.399	42.2812	-37.6413	218.609	54.064	-50.5134	158.657	57.0265	8.2816	156.285	54.2609	42.1436	125.643	55.0746	21.7036	
8	0.0666667	104.662	27.0926	24.374	87.3509	16.8392	7.59699	77.2841	14.5825	-15.4161	66.744	11.5598	-36.4669	116.329	49.6461	-43.6561	112.493	51.5579	-67.5818	115.119	56.7968	-88.3825	145.828	55.0094	-44.6589	150.319	56.7898	-73.2801	154.122	61.2098	-94.0561	165.223	50.6796	-36.1065	174.131	52.5926	-58.3374	182.516	59.8388	-84.804	188.138	40.2163	-21.9938	199.424	39.6867	-39.8593	218.241	47.5423	-48.1973	162.276	54.6365	10.729	159.332	52.1909	39.7248	128.738	52.4854	23.0702	
9	0.075	101.334	26.2582	29.8552	86.5731	15.2667	7.53007	75.5681	13.4941	-15.0352	65.6578	11.3994	-37.2183	118.07	49.1613	-42.7192	110.992	48.6573	-63.6358	113.801	54.8062	-90.9284	142.647	54.1303	-46.8829	149.508	54.86	-72.416	152.955	59.9151	-94.2071	166.001	48.6276	-35.4751	172.847	50.3403	-58.008	180.457	56.18	-83.2152	189.714	37.6583	-20.6243	199.822	37.6086	-37.9893	214.372	47.5634	-51.0074	157.018	49.7393	12.9067	159.19	49.7285	39.0782	130.272	52.9569	24.6652	
10	0.0833333	103.744	26.8357	27.0459	84.3739	16.24	5.8865	72.5429	12.1025	-16.6268	66.2209	9.84544	-38.4816	115.668	48.1588	-38.7232	110.369	48.9826	-67.4275	116.472	54.4611	-88.2425	144.748	52.5444	-45.5746	150.978	54.1488	-68.0172	154.861	58.5415	-94.4343	167.734	48.6186	-38.5249	173.924	50.2965	-58.186	180.498	55.3227	-82.7077	189.704	36.1373	-20.4095	199.086	36.8793	-37.9937	216.613	47.8079	-53.3054	156.987	49.5016	14.7977	157.256	50.5349	43.187	129.158	50.2341	24.8566	
11	0.0916667	101.84	25.2065	31.1345	89.6551	15.6602	7.90675	74.3251	12.6014	-19.821	64.5477	9.76149	-40.2325	113.473	47.9479	-41.1104	112.141	49.3787	-66.7729	113.208	53.8588	-91.136	141.38	52.1718	-42.6241	149.03	54.6371	-69.79	151.094	59.354	-95.2175	166.322	49.0748	-37.6584	174.399	50.1184	-57.8972	179.279	55.5818	-85.1161	186.215	38.1193	-25.1677	201.123	38.3435	-39.6371	217.159	46.3603	-51.5668	159.529	50.4013	10.0527	156.737	49.5886	41.4752	125.348	50.7478	20.5583	
12	0.1	99.3253	26.3767	30.3875	88.1985	16.2368	7.79737	75.7186	12.5489	-14.6293	66.4264	10.7626	-36.0025	111.879	50.1069	-42.5348	111.603	49.8467	-66.0786	109.336	53.1008	-86.3644	141.178	54.5814	-46.8923	150.548	55.0527	-71.6491	153.603	59.6031	-94.9474	164.855	50.0448	-38.6452	175.816	52.1523	-60.3596	177.21	57.8968	-84.2214	187.932	39.1303	-23.1039	198.049	38.9935	-39.1144	213.698	47.8979	-52.9435	157.267	52.9137	11.8485	156.445	49.3915	40.9983	125.214	53.3168	24.9488	
13	0.108333	103.536	28.1908	27.9846	87.0829	17.2665	7.3257	77.0144	15.5931	-16.159	66.4054	12.1852	-34.4239	115.79	50.729	-39.7028	112.404	51.8655	-65.3664	109.876	56.6581	-91.2889	145.413	55.7136	-41.4415	149.179	57.1008	-67.0711	154.116	63.3168	-96.4043	167.66	51.8334	-38.536	169.502	53.5426	-58.6121	178.592	59.156	-79.7515	187.482	39.4328	-19.2243	200.134	40.2398	-39.1867	210.671	48.9576	-51.0216	156.719	52.715	15.1754	156.812	51.2984	40.4051	124.595	54.7752	25.4808	
14	0.116667	101.252	29.814	27.7576	83.47	19.0358	9.25989	75.0476	17.7501	-15.9773	63.9688	16.3001	-39.6267	112.417	54.4169	-42.8908	111.849	53.9478	-67.8227	108.795	58.0569	-88.7169	140.487	57.9418	-43.7212	148.572	59.8917	-66.1499	151.498	66.9555	-94.9599	167.383	53.8686	-36.6652	172.672	58.4429	-60.7635	177.578	64.7602	-84.1956	185.519	40.8402	-20.6673	199.755	41.6497	-34.8873	213.85	52.8678	-52.4441	160.105	53.9527	13.8393	154.726	53.0626	42.2127	125.926	54.9645	21.7094	
15	0.125	99.1747	33.2877	27.2629	85.386	21.8845	8.05151	72.7438	20.3419	-15.1918	64.7087	18.5458	-35.9197	111.728	57.2744	-41.7198	108.476	56.8278	-67.5757	107.261	61.6658	-88.8722	141.611	61.5098	-45.3455	143.909	64.8585	-70.2278	148.188	71.8965	-92.7069	162.427	57.2111	-38.1553	174.32	60.4076	-55.5025	179.422	68.6065	-81.2877	186.083	42.6985	-21.5279	198.786	42.3657	-36.7283	212.771	52.8881	-52.0286	161.373	56.6798	14.964	159.171	55.424	40.3536	126.407	56.8007	25.2908	
16	0.133333	102.463	34.9998	28.2776	83.4258	25.1903	7.1712	74.7888	24.1512	-19.0585	63.4444	21.75	-38.3415	111.981	60.4679	-42.1462	107.119	60.4083	-65.4856	110.773	65.7297	-91.021	140.54	64.6593	-41.1848	144.145	67.7456	-66.4706	153.204	75.3879	-90.2299	162.343	57.1772	-33.537	172.114	62.7063	-58.6546	178.035	71.9642	-81.5311	185.333	41.9338	-19.8168	197.878	41.1645	-41.1062	212.983	50.4953	-54.5481	159.633	58.04	15.4165	159.037	56.0813	43.9852	127.879	58.572	26.5016	
17	0.141667	98.7366	38.7633	27.0813	85.7162	27.6385	4.3638	70.72	25.6973	-15.3397	62.3855	24.6768	-34.9578	114.618	63.2141	-42.2745	110.575	63.8333	-65.6297	110.955	67.6975	-87.9609	144.09	66.7151	-43.14	147.685	71.925	-68.0819	150.268	81.5389	-90.4132	162.039	59.4789	-36.5428	174.651	63.4672	-59.6476	176.777	71.3648	-79.4442	184.618	41.5417	-25.1885	197.674	37.6633	-41.7464	214.529	44.3658	-51.1626	161.001	58.784	15.1554	158.428	56.393	45.7774	124.966	60.9174	26.232	
